<svg width="239" height="61" viewBox="0 0 239 61" fill="none" xmlns="http://www.w3.org/2000/svg">
<g clip-path="url(#clip0_734:3160)">
<path d="M60.4 0H0V60.4H60.4V0Z" fill="#61C6C0"/>
<path d="M31.2998 6.7V30.2H52.1998V18.5H38.5998V22.7H47.7998V25.9H35.4998V13.9L38.0998 15.5H46.3998L31.2998 6.7Z" fill="white" stroke="#0C7EDF" stroke-miterlimit="10"/>
<path d="M24.9002 13.8V25.5H29.2002V6.7L8.2002 18.5V33.2H24.8002V48.4L12.4002 41.4V36.9H8.2002V43.8L29.0002 55.9V29.1H12.6002V21.1L24.9002 13.8Z" fill="white" stroke="#0C7EDF" stroke-miterlimit="10"/>
<path d="M52.1998 32.3V43.9L31.2998 55.9V32.3H52.1998Z" fill="white" stroke="#0C7EDF" stroke-miterlimit="10"/>
<path d="M47.7996 36.6H35.5996V39.6H47.7996V36.6Z" fill="#61C6C0" stroke="#0C7EDF" stroke-miterlimit="10"/>
<path d="M35.5996 43.9H43.3996L35.5996 48.4V43.9Z" fill="#61C6C0" stroke="#0C7EDF" stroke-miterlimit="10"/>
</g>
<rect x="139" width="100" height="60" rx="5" fill="#61C6C0"/>
<path d="M148.242 38.6602H156.328V40.5H145.98V23.4375H148.242V38.6602ZM168.551 36.0469H161.402L159.797 40.5H157.477L163.992 23.4375H165.961L172.488 40.5H170.18L168.551 36.0469ZM162.082 34.1953H167.883L164.977 26.2148L162.082 34.1953ZM177.035 33.8203V40.5H174.785V23.4375H181.078C182.945 23.4375 184.406 23.9141 185.461 24.8672C186.523 25.8203 187.055 27.082 187.055 28.6523C187.055 30.3086 186.535 31.5859 185.496 32.4844C184.465 33.375 182.984 33.8203 181.055 33.8203H177.035ZM177.035 31.9805H181.078C182.281 31.9805 183.203 31.6992 183.844 31.1367C184.484 30.5664 184.805 29.7461 184.805 28.6758C184.805 27.6602 184.484 26.8477 183.844 26.2383C183.203 25.6289 182.324 25.3125 181.207 25.2891H177.035V31.9805ZM201.715 25.2891H196.23V40.5H193.992V25.2891H188.52V23.4375H201.715V25.2891ZM217.043 32.5195C217.043 34.1914 216.762 35.6523 216.199 36.9023C215.637 38.1445 214.84 39.0938 213.809 39.75C212.777 40.4062 211.574 40.7344 210.199 40.7344C208.855 40.7344 207.664 40.4062 206.625 39.75C205.586 39.0859 204.777 38.1445 204.199 36.9258C203.629 35.6992 203.336 34.2812 203.32 32.6719V31.4414C203.32 29.8008 203.605 28.3516 204.176 27.0938C204.746 25.8359 205.551 24.875 206.59 24.2109C207.637 23.5391 208.832 23.2031 210.176 23.2031C211.543 23.2031 212.746 23.5352 213.785 24.1992C214.832 24.8555 215.637 25.8125 216.199 27.0703C216.762 28.3203 217.043 29.7773 217.043 31.4414V32.5195ZM214.805 31.418C214.805 29.3945 214.398 27.8438 213.586 26.7656C212.773 25.6797 211.637 25.1367 210.176 25.1367C208.754 25.1367 207.633 25.6797 206.812 26.7656C206 27.8438 205.582 29.3438 205.559 31.2656V32.5195C205.559 34.4805 205.969 36.0234 206.789 37.1484C207.617 38.2656 208.754 38.8242 210.199 38.8242C211.652 38.8242 212.777 38.2969 213.574 37.2422C214.371 36.1797 214.781 34.6602 214.805 32.6836V31.418ZM222.668 33.8203V40.5H220.418V23.4375H226.711C228.578 23.4375 230.039 23.9141 231.094 24.8672C232.156 25.8203 232.688 27.082 232.688 28.6523C232.688 30.3086 232.168 31.5859 231.129 32.4844C230.098 33.375 228.617 33.8203 226.688 33.8203H222.668ZM222.668 31.9805H226.711C227.914 31.9805 228.836 31.6992 229.477 31.1367C230.117 30.5664 230.438 29.7461 230.438 28.6758C230.438 27.6602 230.117 26.8477 229.477 26.2383C228.836 25.6289 227.957 25.3125 226.84 25.2891H222.668V31.9805Z" fill="#0C7EDF"/>
<rect width="86" height="60" transform="translate(56)" fill="#61C6C0"/>
<path d="M81.78 21.7C80.66 18.74 77.3667 17.26 71.9 17.26C68.78 17.26 66.3933 17.9 64.74 19.18C63.0867 20.46 62.26 22.3533 62.26 24.86V25.02C62.26 28.1933 64.1133 30.4733 67.82 31.86C74.8333 33.7533 78.34 36.2067 78.34 39.22C78.34 42.2867 75.9667 43.82 71.22 43.82C67.86 43.82 65.4333 42.6733 63.94 40.38L60.7 41.3C61.9267 45.14 65.4467 47.06 71.26 47.06C78.6467 47.06 82.34 44.3533 82.34 38.94C82.34 35.0467 79.1 31.9 72.62 29.5C68.2467 28.2733 66.06 26.6067 66.06 24.5C66.06 23.1933 66.6067 22.1933 67.7 21.5C68.7933 20.8067 70.3267 20.46 72.3 20.46C76.0333 20.46 78.1267 21.3 78.58 22.98L81.78 21.7ZM110.363 45.02V31.22H99.2034V34.14H106.643V42.54C104.937 43.2333 103.163 43.58 101.323 43.58C93.4034 43.58 89.4434 39.7133 89.4434 31.98C89.4434 24.38 93.4434 20.58 101.443 20.58C105.71 20.58 108.35 21.3667 109.363 22.94L109.763 19.22C107.737 17.9933 104.963 17.38 101.443 17.38C90.8834 17.38 85.5768 22.38 85.5234 32.38C85.5234 42.1133 90.8034 46.98 101.363 46.98C104.403 46.98 107.123 46.4467 109.523 45.38L110.363 45.02ZM115.142 17.7V46.5H125.902C129.262 46.5 131.796 45.7667 133.502 44.3C135.262 42.86 136.142 40.7 136.142 37.82C136.116 36.4067 135.729 35.0333 134.982 33.7C134.236 32.3667 133.196 31.3533 131.862 30.66C133.702 29.1133 134.622 27.3 134.622 25.22C134.622 23.1133 133.849 21.3267 132.302 19.86C130.729 18.42 128.849 17.7 126.662 17.7H115.142ZM118.862 29.58V20.82H126.662C127.889 20.82 128.902 21.2733 129.702 22.18C130.502 23.0867 130.902 24.18 130.902 25.46C130.902 26.74 130.529 27.7533 129.782 28.5C129.036 29.22 127.969 29.58 126.582 29.58H118.862ZM118.862 43.18V32.58H126.742C128.556 32.58 129.956 33.1 130.942 34.14C131.902 35.2333 132.382 36.5 132.382 37.94V38.14C132.382 41.42 130.396 43.1 126.422 43.18H118.862Z" fill="#0C7EDF"/>
<defs>
<clipPath id="clip0_734:3160">
<rect width="60.4" height="60.4" rx="5" fill="white"/>
</clipPath>
</defs>
</svg>
